<svg width="18" height="18" viewBox="0 0 18 18" fill="none" xmlns="http://www.w3.org/2000/svg">
<g opacity="0.5">
<path d="M12.9602 1.80061C13.8189 1.80251 14.6419 2.14448 15.2491 2.75169C15.8563 3.35889 16.1982 4.18189 16.2002 5.04061V12.9606C16.1982 13.8193 15.8563 14.6423 15.2491 15.2495C14.6419 15.8567 13.8189 16.1987 12.9602 16.2006H5.04015C4.18269 16.1968 3.36153 15.854 2.75588 15.247C2.15022 14.64 1.80925 13.8181 1.80735 12.9606V5.04061C1.80925 4.18314 2.15022 3.36122 2.75588 2.75422C3.36153 2.14722 4.18269 1.80441 5.04015 1.80061H12.9602ZM12.9602 0.720612H5.04015C3.89442 0.720612 2.79561 1.17575 1.98545 1.98591C1.1753 2.79607 0.720154 3.89488 0.720154 5.04061L0.720154 12.9606C0.720154 14.1063 1.1753 15.2052 1.98545 16.0153C2.79561 16.8255 3.89442 17.2806 5.04015 17.2806H12.9602C14.1059 17.2806 15.2047 16.8255 16.0149 16.0153C16.825 15.2052 17.2802 14.1063 17.2802 12.9606V5.04061C17.2802 3.89488 16.825 2.79607 16.0149 1.98591C15.2047 1.17575 14.1059 0.720612 12.9602 0.720612V0.720612Z" fill="#192144"/>
<path d="M9.00697 5.81737C9.63781 5.81737 10.2545 6.00444 10.779 6.35492C11.3035 6.7054 11.7124 7.20354 11.9538 7.78637C12.1952 8.36919 12.2584 9.01051 12.1353 9.62923C12.0122 10.248 11.7084 10.8163 11.2624 11.2624C10.8163 11.7084 10.248 12.0122 9.62923 12.1353C9.01051 12.2584 8.36918 12.1952 7.78636 11.9538C7.20354 11.7124 6.70539 11.3035 6.35491 10.779C6.00443 10.2545 5.81737 9.63782 5.81737 9.00697C5.81642 8.58784 5.89827 8.17265 6.05823 7.78524C6.21818 7.39784 6.45309 7.04584 6.74946 6.74947C7.04583 6.4531 7.39783 6.21819 7.78524 6.05823C8.17265 5.89828 8.58784 5.81642 9.00697 5.81737ZM9.00697 4.73737C8.16222 4.73595 7.33602 4.98514 6.63295 5.45343C5.92987 5.92171 5.3815 6.58803 5.05724 7.36807C4.73298 8.14811 4.6474 9.00681 4.81133 9.83551C4.97526 10.6642 5.38133 11.4256 5.97816 12.0235C6.57498 12.6213 7.33574 13.0287 8.16416 13.194C8.99258 13.3593 9.85142 13.2752 10.632 12.9523C11.4126 12.6293 12.0798 12.0821 12.5493 11.3798C13.0188 10.6775 13.2694 9.85173 13.2694 9.00697C13.2703 8.44662 13.1608 7.89158 12.947 7.37361C12.7332 6.85564 12.4194 6.38491 12.0235 5.98835C11.6276 5.59178 11.1574 5.27717 10.6398 5.06252C10.1222 4.84786 9.56732 4.73737 9.00697 4.73737Z" fill="#192144"/>
<path d="M13.4282 5.55936C13.9611 5.55936 14.393 5.12741 14.393 4.59456C14.393 4.06172 13.9611 3.62976 13.4282 3.62976C12.8954 3.62976 12.4634 4.06172 12.4634 4.59456C12.4634 5.12741 12.8954 5.55936 13.4282 5.55936Z" fill="#192144"/>
</g>
</svg>
