<svg focusable="false" role="img" width="11" height="21" fill="none" xmlns="http://www.w3.org/2000/svg"><path d="M7.488 20.813H2.129v-9.675H0V6.352h2.066c-.157-2.168.236-3.75 1.195-4.83A4.879 4.879 0 014.896.397 5.078 5.078 0 016.867 0h3.756v4.612H7.669a4.7 4.7 0 00-.197 1.74h3.143v4.785H7.472l.016 9.675zm-4.172-1.125h2.97v-9.675h3.143V7.5H6.286v-.57c0-1.5 0-2.842.785-3.345l.15-.098h2.208V1.125h-2.53a3.821 3.821 0 00-1.497.284c-.472.194-.897.48-1.246.841-.785.922-1.107 2.468-.864 4.605l.079.622H1.179v2.535h2.137v9.675z" fill="#192144"/></svg>
