<svg focusable="false" role="img" width="20" height="20" fill="none" xmlns="http://www.w3.org/2000/svg"><path fill-rule="evenodd" clip-rule="evenodd" d="M10 8.124l1.117-2.348c.278-.582.76-1.418 1.44-2.095.67-.665 1.473-1.118 2.443-1.118 2.095 0 3.75 1.74 3.75 3.834 0 1.59-.692 2.712-2.335 4.424-.421.439-.901.912-1.432 1.435-1.386 1.365-3.108 3.064-4.983 5.336-1.875-2.272-3.598-3.97-4.982-5.336a74.286 74.286 0 01-1.433-1.435C1.942 9.11 1.25 7.987 1.25 6.397c0-2.093 1.655-3.834 3.75-3.834.97 0 1.772.453 2.442 1.118.682.677 1.163 1.513 1.44 2.095L10 8.124zm.49 10.887a.645.645 0 01-.22.176.615.615 0 01-.76-.176c-2.001-2.497-3.813-4.283-5.304-5.752C1.625 10.713 0 9.113 0 6.397 0 3.554 2.237 1.25 5 1.25c2 0 3.399 1.379 4.255 2.636.325.48.572.94.745 1.303.216-.454.465-.89.745-1.303C11.601 2.627 13 1.25 15 1.25c2.762 0 5 2.304 5 5.147 0 2.716-1.625 4.316-4.206 6.862-1.492 1.47-3.303 3.256-5.304 5.75v.002z" fill="#192144" opacity=".3"/></svg>
