<svg width="19" height="17" viewBox="0 0 19 17" fill="none" xmlns="http://www.w3.org/2000/svg">
<path d="M2.01661 3.32515L8.76661 7.5556C8.99341 7.69735 9.28681 7.76455 9.58201 7.76455C9.87721 7.76455 10.1706 7.69735 10.3974 7.5556L17.1474 3.32515C17.5875 3.049 18.0033 1.97485 17.196 1.97485H1.96891C1.16161 1.97485 1.57741 3.049 2.01661 3.32515ZM17.3517 5.6383L10.3974 9.86665C10.0914 10.0536 9.87721 10.0756 9.58201 10.0756C9.28681 10.0756 9.07261 10.0536 8.76661 9.86665C8.46061 9.67975 2.34691 5.9407 1.84741 5.63725C1.49641 5.42305 1.50001 5.674 1.50001 5.8672V13.5249C1.50001 13.9659 2.00941 14.5749 2.40001 14.5749H16.8C17.1906 14.5749 17.7 13.9659 17.7 13.5249V5.86825C17.7 5.67505 17.7036 5.4241 17.3517 5.6383Z" fill="#161C35"/>
</svg>
