<svg focusable="false" role="img" width="25" height="24" fill="none" xmlns="http://www.w3.org/2000/svg"><path opacity=".15" d="M18.308 21a4.21 4.21 0 01-2.363-.727 4.3 4.3 0 01-1.566-1.935 4.368 4.368 0 01-.242-2.492 4.332 4.332 0 011.163-2.208 4.235 4.235 0 012.178-1.18 4.198 4.198 0 012.457.245c.777.327 1.441.88 1.908 1.589a4.356 4.356 0 01-.53 5.443A4.227 4.227 0 0118.308 21zm0-7.125c-.549 0-1.085.165-1.541.474a2.804 2.804 0 00-1.022 1.262 2.85 2.85 0 00-.158 1.625c.107.546.372 1.047.76 1.44a2.738 2.738 0 003.023.61c.506-.213.939-.573 1.243-1.036a2.84 2.84 0 00-.345-3.55 2.758 2.758 0 00-1.96-.825zM6.105 21a4.21 4.21 0 01-2.363-.727 4.3 4.3 0 01-1.566-1.935 4.369 4.369 0 01-.242-2.492 4.331 4.331 0 011.164-2.208 4.235 4.235 0 012.177-1.18 4.198 4.198 0 012.457.245c.777.327 1.441.88 1.908 1.589a4.356 4.356 0 01-.53 5.443A4.227 4.227 0 016.105 21zm0-7.125c-.549 0-1.085.165-1.541.474a2.804 2.804 0 00-1.022 1.262 2.85 2.85 0 00-.158 1.625c.107.546.372 1.047.76 1.44a2.738 2.738 0 003.022.61c.507-.213.94-.573 1.245-1.036a2.84 2.84 0 00-.346-3.55 2.758 2.758 0 00-1.96-.825zM15.164 6a1.456 1.456 0 001.05-.44 1.497 1.497 0 00.43-1.065 1.5 1.5 0 00-.426-1.06A1.457 1.457 0 0015.174 3a1.461 1.461 0 00-1.048.436 1.501 1.501 0 00-.436 1.06 1.518 1.518 0 00.43 1.061A1.478 1.478 0 0015.164 6z" fill="#1D2E5B"/><path opacity=".15" d="M17.362 9H15.34a.183.183 0 01-.163-.097L13.71 6.176a1.447 1.447 0 00-.435-.511 1.422 1.422 0 00-1.847.148l-3.23 3.3c-.27.28-.425.656-.43 1.05 0 .815.583 1.106.856 1.27 1.317.77 2.245 1.332 2.754 1.645a.186.186 0 01.088.16v3.24c0 .404.306.75.704.77a.732.732 0 00.546-.206.75.75 0 00.23-.542v-4.031a.759.759 0 00-.308-.61l-1.71-1.247a.187.187 0 01-.077-.134.19.19 0 01.05-.147l1.941-2.1a.184.184 0 01.239-.027.186.186 0 01.058.064l1.008 1.846a.745.745 0 00.647.386h2.59a.73.73 0 00.535-.232A.751.751 0 0017.362 9z" fill="#1D2E5B"/></svg>
