<svg focusable="false" role="img" width="23" height="12" fill="none" xmlns="http://www.w3.org/2000/svg"><path d="M17.766 11.833a2.981 2.981 0 01-1.543-.472 7.566 7.566 0 01-1.32-1.148c-.327-.33-.869-.885-1.076-.885-.208 0-.356.69-.349 1.178a1.32 1.32 0 01-.349.907 1.666 1.666 0 01-.905.375H10.8a8.35 8.35 0 01-5.513-2.25C2.557 7.011.212 2.181.116 1.971A1.014 1.014 0 01.227.86C.51.622.868.494 1.237.5H4.352c.25.037.49.126.704.262.202.137.363.326.467.548.32.692.687 1.361 1.099 2.002.971 1.5 1.402 1.845 1.558 1.92a6.154 6.154 0 00.14-2.152 2.045 2.045 0 00-.155-.96.98.98 0 00-.572-.218l-.541-.517C6.949.89 7.49.463 7.869.298a6.382 6.382 0 012.337-.285h.527a6.688 6.688 0 011.595.15c1.261.27 1.217 1.298 1.165 2.483 0 .345-.037.75-.037 1.215v.36c-.03.326-.007.655.067.975a6.803 6.803 0 001.535-1.86c.43-.67.807-1.372 1.128-2.1.098-.23.266-.424.479-.552.213-.128.461-.184.708-.16h3.176c.093-.01.188-.01.282 0 .742 0 1.18.217 1.357.637.178.42.127 1.245-1.75 3.457l-.742.848c-.36.352-.67.754-.92 1.192.28.323.6.61.95.855.852.65 1.602 1.426 2.225 2.303a1.206 1.206 0 01.193 1.26 1.693 1.693 0 01-1.395.75l-2.812.037-.17-.03zm-3.94-3.63c.668 0 1.247.593 1.863 1.215.333.367.706.695 1.113.975.308.207.67.317 1.039.315h.074l2.82-.037a1.05 1.05 0 00.4-.105l-.074-.12a9.864 9.864 0 00-1.989-2.04c-.883-.75-1.335-1.103-1.387-1.68-.052-.578.363-1.08 1.194-2.033l.742-.832a8.047 8.047 0 001.521-2.213 4.155 4.155 0 00-.497 0h-3.242a.404.404 0 00-.178 0A15.422 15.422 0 0116 3.936c-1.403 2.115-2.063 2.4-2.53 2.4a.876.876 0 01-.416-.105c-.742-.428-.742-1.38-.697-2.07v-.323c0-.487 0-.907.037-1.267.06-1.26 0-1.268-.282-1.335a6.285 6.285 0 00-1.38-.12h-.512a9.543 9.543 0 00-1.41.075.88.88 0 01.186.187c.306.488.458 1.058.438 1.635.096 1.238.044 2.85-.742 3.24-.14.066-.292.1-.446.098-.69 0-1.372-.66-2.537-2.445a17.617 17.617 0 01-1.195-2.138l-.059-.075a.891.891 0 00-.237-.082h-3.02c.438.915 2.515 4.965 4.837 7.087a7.378 7.378 0 004.764 1.973h1.372a.736.736 0 00.2-.075v-.068c0-.202 0-1.95 1.173-2.25a1.23 1.23 0 01.282-.075z" fill="#192144"/></svg>
