<svg focusable="false" role="img" width="21" height="24" fill="none" xmlns="http://www.w3.org/2000/svg"><path opacity=".15" d="M14.976 5.76c.95 0 1.721-.86 1.721-1.92s-.77-1.92-1.721-1.92c-.95 0-1.721.86-1.721 1.92s.77 1.92 1.72 1.92zM13.923 10.53c.198.329.481.581.812.724.33.142.693.168 1.037.073l2.854-.796-.416-1.862-2.854.796L14.17 7.48a1.735 1.735 0 00-1.094-.82l-3.31-.739a1.56 1.56 0 00-1.094.158c-.34.185-.614.49-.783.867l-1.427 3.183 1.54.86 1.427-3.185 1.692.378-4.377 8.138H2.928v1.92h3.815c.601 0 1.167-.357 1.476-.932L9.87 14.24l4.448.992 1.563 5.231 1.632-.607-1.562-5.23a1.955 1.955 0 00-.495-.833 1.665 1.665 0 00-.801-.444l-2.615-.583 1.525-2.836.358.6z" fill="#1D2E5B"/></svg>
