<svg xmlns="http://www.w3.org/2000/svg">
  <symbol id="burger" viewBox="0 0 25 11">
    <g>
      <rect width="25" height="3" rx="1.5" />
      <rect y="8" width="25" height="3" rx="1.5" />
    </g>
  </symbol>
  <symbol id="close" viewBox="0 0 22 22">
    <path d="M19.75 2.25l-18 18M1.75 2.25l18 18" stroke-linecap="round" stroke-linejoin="round" />
  </symbol>
  <symbol id="phone-1" viewBox="0 0 18 17">
    <path fill-rule="evenodd" clip-rule="evenodd"
      d="M9.5 1.086c-2.796 0-5.6.473-6.617 1.415-.844.782-1.125 2.162-1.22 3.037 0 0-.013.086-.013.123 0 .343.295.618.654.618.043 0 1.616-.12 2.565-.195.022-.003.045-.006.068-.012.353-.01.638-.281.638-.618l.003-1.217c0-.377.324-.68.723-.68H12.7c.399 0 .723.303.723.68l.003 1.217c0 .337.285.609.638.618.022.006.045.01.069.012.948.074 2.521.195 2.564.195.36 0 .654-.275.654-.618 0-.037-.013-.123-.013-.123-.095-.875-.376-2.255-1.22-3.037-1.017-.942-3.82-1.415-6.617-1.415zm0 8.032c-.723 0-1.308.553-1.308 1.235 0 .683.585 1.236 1.308 1.236.723 0 1.308-.553 1.308-1.236 0-.682-.585-1.235-1.308-1.235zm-.981-2.78v-.773c0-.426-.367-.772-.818-.772-.451 0-.818.346-.818.772v.773l-4.412 4.45a1.504 1.504 0 00-.494 1.107v1.239c0 .682.586 1.235 1.309 1.235h.327v.772c0 .427.366.773.817.773.452 0 .818-.346.818-.773v-.772h8.504v.772c0 .427.366.773.818.773.451 0 .817-.346.817-.773v-.772h.327c.723 0 1.309-.553 1.309-1.236v-1.238c0-.433-.19-.825-.494-1.106l-4.412-4.451v-.773c0-.426-.367-.772-.818-.772-.451 0-.818.346-.818.772v.773H8.52zM9.5 7.882c1.446 0 2.617 1.106 2.617 2.471 0 1.366-1.171 2.472-2.617 2.472s-2.617-1.106-2.617-2.472c0-1.365 1.171-2.47 2.617-2.47z" />
  </symbol>
  <symbol id="phone-2" viewBox="0 0 18 18">
    <g>
      <path
        d="M9.774 8.224c0 .189.154.337.342.337a.7.7 0 01.703.696.34.34 0 00.341.337.34.34 0 00.342-.337 1.38 1.38 0 00-1.386-1.37.34.34 0 00-.342.337zm5.558 1.37a.338.338 0 00.341-.337c0-3.031-2.492-5.495-5.557-5.495a.34.34 0 00-.342.338.34.34 0 00.342.337c2.69 0 4.875 2.164 4.875 4.82a.34.34 0 00.34.337z" />
      <path
        d="M12.905 9.257a.34.34 0 00.341.337.34.34 0 00.341-.337c0-1.894-1.556-3.433-3.471-3.433a.34.34 0 00-.342.338c0 .189.154.337.342.337 1.54 0 2.789 1.239 2.789 2.758zM10.115 1.7a.34.34 0 00-.34.337.34.34 0 00.34.338c3.841 0 6.965 3.088 6.965 6.882 0 .185.15.337.341.337a.34.34 0 00.341-.337c0-4.168-3.43-7.557-7.646-7.557zm3.336 11.114l-.447.24c-.755.408-1.342 1.527-2.273.684L8.301 11.3 6.2 9.257c-1.055-1.334.126-1.65.54-2.4l.242-.439c.273-.5.372-1.06.29-1.62a2.557 2.557 0 00-.744-1.475 2.636 2.636 0 00-1.868-.762c-.706 0-1.372.27-1.87.762l-.174.176c-.922.911-1.028 2.48-.3 4.424C3 9.78 4.383 11.791 6.2 13.587c2.769 2.737 5.851 4.313 8.063 4.313.874 0 1.615-.246 2.14-.766l.178-.176c.495-.489.772-1.144.775-1.85a2.636 2.636 0 00-.775-1.845 2.683 2.683 0 00-3.13-.45z" />
    </g>
  </symbol>
  <symbol id="email-1" viewBox="0 0 24 25">
    <path fill-rule="evenodd" clip-rule="evenodd"
      d="M19.14 16.466L14.808 12.5l4.33-3.966-.59-.631-6.299 5.769-6.299-5.77-.59.632L9.69 12.5l-4.33 3.966.59.631 4.38-4.011 1.919 1.758 1.92-1.758 4.379 4.011.59-.63zM4.575 6.25c-.809 0-1.465.699-1.465 1.558v9.384c0 .86.65 1.558 1.465 1.558h15.348c.81 0 1.465-.699 1.465-1.558V7.808c0-.86-.65-1.558-1.465-1.558H4.576z" />
  </symbol>
  <symbol id="email-2" viewBox="0 0 18 15">
    <path
      d="M2.017 3.325l6.75 4.23c.226.142.52.21.815.21.295 0 .589-.068.815-.21l6.75-4.23c.44-.276.856-1.35.049-1.35H1.969c-.807 0-.392 1.074.048 1.35zm15.335 2.313l-6.955 4.229c-.306.187-.52.209-.815.209-.295 0-.51-.022-.815-.21-.306-.186-6.42-3.925-6.92-4.229-.35-.214-.347.037-.347.23v7.658c0 .44.51 1.05.9 1.05h14.4c.39 0 .9-.61.9-1.05V5.868c0-.193.004-.444-.348-.23z" />
  <symbol>
  <symbol id="fb" viewBox="0 0 11 21">
    <path
      d="M7.488 20.813H2.129v-9.675H0V6.352h2.066c-.157-2.168.236-3.75 1.195-4.83A4.879 4.879 0 014.896.397 5.078 5.078 0 016.867 0h3.756v4.612H7.669a4.7 4.7 0 00-.197 1.74h3.143v4.785H7.472l.016 9.675zm-4.172-1.125h2.97v-9.675h3.143V7.5H6.286v-.57c0-1.5 0-2.842.785-3.345l.15-.098h2.208V1.125h-2.53a3.821 3.821 0 00-1.497.284c-.472.194-.897.48-1.246.841-.785.922-1.107 2.468-.864 4.605l.079.622H1.179v2.535h2.137v9.675z" />
  </symbol>
  <symbol id="vk" viewBox="0 0 23 12">
    <path
      d="M17.766 11.833a2.981 2.981 0 01-1.543-.472 7.566 7.566 0 01-1.32-1.148c-.327-.33-.869-.885-1.076-.885-.208 0-.356.69-.349 1.178a1.32 1.32 0 01-.349.907 1.666 1.666 0 01-.905.375H10.8a8.35 8.35 0 01-5.513-2.25C2.557 7.011.212 2.181.116 1.971A1.014 1.014 0 01.227.86C.51.622.868.494 1.237.5H4.352c.25.037.49.126.704.262.202.137.363.326.467.548.32.692.687 1.361 1.099 2.002.971 1.5 1.402 1.845 1.558 1.92a6.154 6.154 0 00.14-2.152 2.045 2.045 0 00-.155-.96.98.98 0 00-.572-.218l-.541-.517C6.949.89 7.49.463 7.869.298a6.382 6.382 0 012.337-.285h.527a6.688 6.688 0 011.595.15c1.261.27 1.217 1.298 1.165 2.483 0 .345-.037.75-.037 1.215v.36c-.03.326-.007.655.067.975a6.803 6.803 0 001.535-1.86c.43-.67.807-1.372 1.128-2.1.098-.23.266-.424.479-.552.213-.128.461-.184.708-.16h3.176c.093-.01.188-.01.282 0 .742 0 1.18.217 1.357.637.178.42.127 1.245-1.75 3.457l-.742.848c-.36.352-.67.754-.92 1.192.28.323.6.61.95.855.852.65 1.602 1.426 2.225 2.303a1.206 1.206 0 01.193 1.26 1.693 1.693 0 01-1.395.75l-2.812.037-.17-.03zm-3.94-3.63c.668 0 1.247.593 1.863 1.215.333.367.706.695 1.113.975.308.207.67.317 1.039.315h.074l2.82-.037a1.05 1.05 0 00.4-.105l-.074-.12a9.864 9.864 0 00-1.989-2.04c-.883-.75-1.335-1.103-1.387-1.68-.052-.578.363-1.08 1.194-2.033l.742-.832a8.047 8.047 0 001.521-2.213 4.155 4.155 0 00-.497 0h-3.242a.404.404 0 00-.178 0A15.422 15.422 0 0116 3.936c-1.403 2.115-2.063 2.4-2.53 2.4a.876.876 0 01-.416-.105c-.742-.428-.742-1.38-.697-2.07v-.323c0-.487 0-.907.037-1.267.06-1.26 0-1.268-.282-1.335a6.285 6.285 0 00-1.38-.12h-.512a9.543 9.543 0 00-1.41.075.88.88 0 01.186.187c.306.488.458 1.058.438 1.635.096 1.238.044 2.85-.742 3.24-.14.066-.292.1-.446.098-.69 0-1.372-.66-2.537-2.445a17.617 17.617 0 01-1.195-2.138l-.059-.075a.891.891 0 00-.237-.082h-3.02c.438.915 2.515 4.965 4.837 7.087a7.378 7.378 0 004.764 1.973h1.372a.736.736 0 00.2-.075v-.068c0-.202 0-1.95 1.173-2.25a1.23 1.23 0 01.282-.075z" />
  </symbol>
  <symbol id="insta" viewBox="0 0 18 18">
    <g>
      <path
        d="M12.96 1.8a3.247 3.247 0 013.24 3.24v7.92a3.248 3.248 0 01-3.24 3.24H5.04a3.247 3.247 0 01-3.233-3.24V5.04A3.247 3.247 0 015.04 1.8h7.92zm0-1.08H5.04A4.32 4.32 0 00.72 5.04v7.92a4.32 4.32 0 004.32 4.32h7.92a4.32 4.32 0 004.32-4.32V5.04A4.32 4.32 0 0012.96.72z" />
      <path
        d="M9.007 5.817a3.19 3.19 0 11-2.949 1.968 3.182 3.182 0 012.949-1.968zm0-1.08a4.27 4.27 0 103.94 2.637 4.263 4.263 0 00-3.94-2.637zM13.428 5.56a.965.965 0 100-1.93.965.965 0 000 1.93z" />
    </g>
  </symbol>
  <symbol id="btn-icon" viewBox="0 0 14 14">
    <path d="M10.07 6.075l-9.913 5.63V.444l9.913 5.63z" />
  </symbol>
  <symbol id="credits-logo" viewBox="0 0 60 60">
    <path fill="#2E368F"
      d="M30.2 5H30L10.3 7.1v36.2L30 55l19.7-11.7V7.1L30.2 5zm17 36.8L30 52 12.8 41.8V27l17.1 10.2V39l-11.7-7v1.8L30 40.9v1.9l-11.8-7v1.8l11.8 7 11.9-7.1v-7.6l5.3-3.2v15.1zm-.1-17l-4.7 2.8-2.2 1.3-10.3-6.1v1.8l8.8 5.3h-.1l-.2.1-1.3.7-7.3-4.3v1.8l5.8 3.4-1.4.9-4.3-2.6v1.8l2.9 1.7-2.9 1.7-17-10.1 17-10.2 17.2 10zm.1-1.8L29.9 12.8 12.8 23V9.4L30 7.6l17.2 1.8V23z" />
  </symbol>
  <symbol id="tariffs" viewBox="0 0 27 27">
    <path
      d="M22.1 21.97v-3.25c0-.91-.13-1.82-.65-2.73-.52-.91-1.17-1.69-2.08-2.21-.91-.65-2.86-.78-3.77-.78l-2.08 2.21.78 1.69v3.9L13 22.23l-1.3-1.43v-3.9l.91-1.69L10.4 13c-1.04 0-2.99.13-3.9.78-.91.52-1.43 1.3-1.95 2.21-.52.91-.65 1.69-.65 2.73v3.25S7.28 23.4 13 23.4s9.1-1.43 9.1-1.43zM13 2.73c-2.47 0-3.9 2.34-3.51 4.94.39 2.6 1.69 4.42 3.51 4.42 1.82 0 3.12-1.82 3.51-4.42.39-2.73-1.04-4.94-3.51-4.94z" />
  </symbol>
  <symbol id="user" viewBox="0 0 14 14">
    <path
      d="M4.375 3.93c0 1.523 1.178 2.763 2.625 2.763s2.625-1.24 2.625-2.763c0-1.524-1.178-2.763-2.625-2.763S4.375 2.407 4.375 3.93zm7.292 8.903h.583v-.614c0-2.37-1.832-4.298-4.083-4.298H5.833c-2.251 0-4.083 1.929-4.083 4.298v.614h9.917z" />
  </symbol>
  <symbol id="airplane" viewBox="0 0 21 23">
    <g>
      <g clip-path="url(#clip4)">
        <path
          d="M16.783 2.093c-.728.173-1.46.347-1.733.824l-2.107 4.199L1.63 9.806l-.458 1.341 8.658.82-1.47 3.634-3.283.78-.824 1.43 2.369.256.27 1.169c.12.414.545.69.908.604l1.095-.26 1.268 2.163.825-1.428-.81-3.505 2.377-3.03 4.536 7.961.914-1.038L15.213 8.63l2.563-3.895c.276-.477.096-1.255-.085-2.036-.09-.387-.545-.691-.908-.605z" />
      </g>
      <defs>
        <clipPath id="clip4">
          <path transform="translate(0 .96)" d="M0 0h20.826v21.12H0z" />
        </clipPath>
      </defs>
    </g>
  </symbol>
  <symbol id="bus" viewBox="0 0 18 21">
    <g>
      <g clip-path="url(#clip1)">
        <path
          d="M4.34 13.948a1.3 1.3 0 00-.415-.97 1.392 1.392 0 00-1.004-.4c-.392 0-.726.133-1.003.4a1.3 1.3 0 00-.416.97c0 .38.138.702.416.97.277.268.611.402 1.003.402.392 0 .726-.134 1.004-.402.277-.268.415-.59.415-.97zm11.356 0a1.3 1.3 0 00-.416-.97 1.392 1.392 0 00-1.004-.4c-.392 0-.726.133-1.003.4a1.3 1.3 0 00-.416.97c0 .38.139.702.416.97.277.268.611.402 1.003.402.392 0 .727-.134 1.004-.402a1.3 1.3 0 00.416-.97zm-.51-4.242l-.799-4.115a.695.695 0 00-.25-.401.698.698 0 00-.449-.156H3.508c-.17 0-.319.052-.448.156a.695.695 0 00-.25.401l-.798 4.115a.661.661 0 00.155.568c.14.164.322.246.543.246h11.777a.682.682 0 00.543-.246.661.661 0 00.155-.568zm-2.507-6.558a.488.488 0 00-.155-.364.523.523 0 00-.377-.15H5.05a.523.523 0 00-.377.15.488.488 0 00-.155.364.523.523 0 00.532.514h7.097c.148 0 .274-.05.377-.15a.488.488 0 00.155-.364zm4.436 7.768v6.461h-1.42v1.372a1.3 1.3 0 01-.415.97 1.392 1.392 0 01-1.004.4c-.392 0-.726-.133-1.003-.4a1.3 1.3 0 01-.416-.97v-1.372H4.34v1.372c0 .378-.138.701-.415.97a1.392 1.392 0 01-1.004.4c-.392 0-.726-.133-1.003-.4a1.3 1.3 0 01-.416-.97v-1.372H.082v-6.46c0-.8.093-1.597.278-2.39l1.142-4.864c.066-.557.427-1.047 1.08-1.468.655-.422 1.505-.74 2.551-.954C6.18 1.027 7.335.92 8.6.92c1.264 0 2.419.107 3.465.321 1.046.215 1.896.532 2.55.954.655.421 1.015.91 1.082 1.468l1.164 4.864c.17.729.255 1.525.255 2.39z" />
      </g>
      <defs>
        <clipPath id="clip1">
          <path transform="translate(.08 .92)" d="M0 0h17.04v19.2H0z" />
        </clipPath>
      </defs>
    </g>
  </symbol>
  <symbol id="bike" viewBox="0 0 25 24">
    <g>
      <path
        d="M18.308 21a4.21 4.21 0 01-2.363-.727 4.3 4.3 0 01-1.566-1.935 4.368 4.368 0 01-.242-2.492 4.332 4.332 0 011.163-2.208 4.235 4.235 0 012.178-1.18 4.198 4.198 0 012.457.245c.777.327 1.441.88 1.908 1.589a4.356 4.356 0 01-.53 5.443A4.227 4.227 0 0118.308 21zm0-7.125c-.549 0-1.085.165-1.541.474a2.804 2.804 0 00-1.022 1.262 2.85 2.85 0 00-.158 1.625c.107.546.372 1.047.76 1.44a2.738 2.738 0 003.023.61c.506-.213.939-.573 1.243-1.036a2.84 2.84 0 00-.345-3.55 2.758 2.758 0 00-1.96-.825zM6.105 21a4.21 4.21 0 01-2.363-.727 4.3 4.3 0 01-1.566-1.935 4.369 4.369 0 01-.242-2.492 4.331 4.331 0 011.164-2.208 4.235 4.235 0 012.177-1.18 4.198 4.198 0 012.457.245c.777.327 1.441.88 1.908 1.589a4.356 4.356 0 01-.53 5.443A4.227 4.227 0 016.105 21zm0-7.125c-.549 0-1.085.165-1.541.474a2.804 2.804 0 00-1.022 1.262 2.85 2.85 0 00-.158 1.625c.107.546.372 1.047.76 1.44a2.738 2.738 0 003.022.61c.507-.213.94-.573 1.245-1.036a2.84 2.84 0 00-.346-3.55 2.758 2.758 0 00-1.96-.825zM15.164 6a1.456 1.456 0 001.05-.44 1.497 1.497 0 00.43-1.065 1.5 1.5 0 00-.426-1.06A1.457 1.457 0 0015.174 3a1.461 1.461 0 00-1.048.436 1.501 1.501 0 00-.436 1.06 1.518 1.518 0 00.43 1.061A1.478 1.478 0 0015.164 6z" />
      <path
        d="M17.362 9H15.34a.183.183 0 01-.163-.097L13.71 6.176a1.447 1.447 0 00-.435-.511 1.422 1.422 0 00-1.847.148l-3.23 3.3c-.27.28-.425.656-.43 1.05 0 .815.583 1.106.856 1.27 1.317.77 2.245 1.332 2.754 1.645a.186.186 0 01.088.16v3.24c0 .404.306.75.704.77a.732.732 0 00.546-.206.75.75 0 00.23-.542v-4.031a.759.759 0 00-.308-.61l-1.71-1.247a.187.187 0 01-.077-.134.19.19 0 01.05-.147l1.941-2.1a.184.184 0 01.239-.027.186.186 0 01.058.064l1.008 1.846a.745.745 0 00.647.386h2.59a.73.73 0 00.535-.232A.751.751 0 0017.362 9z" />
    </g>
  </symbol>
  <symbol id="run" viewBox="0 0 21 24">
    <path
      d="M14.976 5.76c.95 0 1.721-.86 1.721-1.92s-.77-1.92-1.721-1.92c-.95 0-1.721.86-1.721 1.92s.77 1.92 1.72 1.92zM13.923 10.53c.198.329.481.581.812.724.33.142.693.168 1.037.073l2.854-.796-.416-1.862-2.854.796L14.17 7.48a1.735 1.735 0 00-1.094-.82l-3.31-.739a1.56 1.56 0 00-1.094.158c-.34.185-.614.49-.783.867l-1.427 3.183 1.54.86 1.427-3.185 1.692.378-4.377 8.138H2.928v1.92h3.815c.601 0 1.167-.357 1.476-.932L9.87 14.24l4.448.992 1.563 5.231 1.632-.607-1.562-5.23a1.955 1.955 0 00-.495-.833 1.665 1.665 0 00-.801-.444l-2.615-.583 1.525-2.836.358.6z" />
  </symbol>
  <symbol id="minus" viewBox="0 0 14 2">
    <path stroke="#CCC" stroke-width="2" d="M0 1h14"/>
  </symbol>
  <symbol id="plus" viewBox="0 0 14 14">
    <path stroke="#CCC" stroke-width="2" d="M0 6.7h14M6.7 14V0"/>
  </symbol>
  <symbol id="arrow-left" viewBox="0 0 9 19">
    <path d="M8.812.4a1.064 1.064 0 00-.345-.26.958.958 0 00-.814 0c-.13.06-.246.149-.345.26L.248 8.373a.972.972 0 00-.183.31 1.063 1.063 0 000 .732.972.972 0 00.183.31l7.06 7.972a.978.978 0 001.504 0c.416-.47.071-.964-.345-1.434l-3.718-4.178-2.62-3.067 6.692-7.714s.407-.442-.01-.902z"/>
  </symbol>
  <symbol id="arrow-right" viewBox="0 0 10 19">
    <path d="M1.07 18.37c.098.111.215.2.344.26a.959.959 0 00.815 0c.129-.06.246-.149.344-.26l7.061-7.972a.973.973 0 00.184-.31 1.064 1.064 0 000-.732.972.972 0 00-.184-.31l-7.06-7.972a.978.978 0 00-1.505 0c-.416.47.255 1.285.671 1.755l6.085 6.893-6.41 7.25c-.408.46-.762.937-.346 1.397z" />
  </symbol>
  <symbol id="arrow-down" viewBox="0 0 12 16">
    <path d="M.638 5.098a.862.862 0 00-.162.275.946.946 0 000 .649.861.861 0 00.162.274l4.96 5.627c.056.063.121.113.193.147a.534.534 0 00.456 0 .594.594 0 00.193-.147l4.96-5.627a.928.928 0 000-1.198c-.293-.332-.6-.057-.892.275l-2.6 2.963L6 10.424 1.2 5.091s-.275-.325-.562.007z"/>
  </symbol>
  <symbol id="arrow-down-long" viewBox="0 0 8 11">
    <path d="M3.646 10.354a.5.5 0 00.708 0l3.182-3.182a.5.5 0 10-.708-.708L4 9.293 1.172 6.464a.5.5 0 10-.708.708l3.182 3.182zM3.5 0v10h1V0h-1z" fill="#CBCED9"/>
  </symbol>
  <symbol id="circle" viewBox="0 0 8 8">
    <circle cx="4" cy="4" r="3.5"/>
  </symbol>
  <symbol id="delete" viewBox="0 0 9 9">
    <path d="M7.875 1.125l-6.75 6.75M1.125 1.125l6.75 6.75" stroke="#AFB0B5" stroke-linecap="round" stroke-linejoin="round"/>
  </symbol>
  <symbol id="btn-icon-back" viewBox="0 0 16 16">
    <path d="M0 7L12 .072v13.856L0 7z" fill="#1D2E5B"/>
  </symbol>
  <symbol id="line-1">
    <g>
      <circle cx="14" cy="3" r="3" fill="#1D2E5B"/><circle cx="14" cy="284" r="3" fill="#1D2E5B"/><path fill="#1D2E5B" d="M2 2h11v2H2zM0 283h12v2H0z"/><path fill="#1D2E5B" d="M0 285V2h2v283z"/>
    </g>
  </symbol>
  <symbol id="line-2">
    <g>
      <circle cx="7" cy="7" r="7" fill="#1D2E5B"/><circle cx="7" cy="267" r="7" fill="#1D2E5B"/><path stroke="#1D2E5B" stroke-width="2" d="M7 13v248"/>
    </g>
  </symbol>
  <symbol id="filter-expand" viewBox="0 0 17 3">
    <g>
      <circle cx="1.5" cy="1.5" r="1.5" fill="#192144"/>
      <circle cx="8.5" cy="1.5" r="1.5" fill="#192144"/>
      <circle cx="15.5" cy="1.5" r="1.5" fill="#192144"/>
    </g>
  </symbol>
  <symbol id="favorite" viewBox="0 0 20 18">
    <path d="M5 .25c2.763 0 5 2.194 5 4.9 0-2.706 2.238-4.9 5-4.9s5 2.194 5 4.9c0 4.079-4.043 5.518-9.51 12.01a.64.64 0 01-.98 0C4.043 10.668 0 9.229 0 5.15 0 2.444 2.237.25 5 .25z"/>
  </symbol>
  <symbol id="favorite-2" viewBox="0 0 13 13">
    <path fill-rule="evenodd" clip-rule="evenodd" d="M6.32 4.104l.684-1.366c.17-.339.465-.825.882-1.218.41-.388.903-.651 1.497-.651 1.284 0 2.298 1.013 2.298 2.23 0 .925-.424 1.578-1.431 2.574-.258.255-.552.53-.878.835-.848.794-1.904 1.783-3.053 3.104C5.17 8.29 4.115 7.302 3.266 6.508a44.31 44.31 0 01-.878-.835C1.382 4.677.958 4.024.958 3.099.957 1.882 1.971.87 3.254.87c.595 0 1.086.263 1.497.65.417.394.712.88.882 1.219l.685 1.366zm.3 6.334a.395.395 0 01-.601 0C4.793 8.985 3.683 7.946 2.769 7.09 1.187 5.611.19 4.68.19 3.1.191 1.445 1.563.105 3.255.105c1.226 0 2.083.802 2.608 1.534.199.278.35.547.456.757.133-.263.285-.517.457-.757C7.3.906 8.157.105 9.383.105c1.693 0 3.064 1.34 3.064 2.994 0 1.58-.996 2.511-2.578 3.992-.913.856-2.023 1.895-3.25 3.346z"/>
  </symbol>
  <symbol id="accordion" viewBox="0 0 10 6">
    <path d="M5 5L.67.5h8.66L5 5z"/>
  </symbol>
  <symbol id="pagination" viewBox="0 0 10 18">
    <path d="M0 9L9.75 0.339745L9.75 17.6603L0 9Z" fill="#1D2E5B"/>
  </symbol>
  <symbol id="show-more" viewBox="0 0 18 18">
    <g>
      <rect y="8.308" width="18" height="1.385" rx=".692" fill="#1D2E5B"/><rect x="8.308" y="18" width="18" height="1.385" rx=".692" transform="rotate(-90 8.308 18)" fill="#1D2E5B"/>
    </g>
  </symbol>
  <symbol id="return" viewBox="0 0 32 16">
    <g>
      <path fill-rule="evenodd" clip-rule="evenodd" d="M4 16h24a4 4 0 004-4V7a4 4 0 00-4-4H4v2h24a2 2 0 012 2v5a2 2 0 01-2 2H4v2z" fill="#fff"/><path d="M0 4L9 .536v6.928L0 4z" fill="#fff"/>
    </g>
  </symbol>
</svg>
